<svg width="68" height="68" viewBox="0 0 68 68" fill="none" xmlns="http://www.w3.org/2000/svg">
<g clip-path="url(#clip0_1159_216)">
<path d="M66.585 34.2328L59.0705 11.0908C57.2584 5.5048 52.0382 1.71429 46.1695 1.71429H21.8305C15.9453 1.71429 10.7417 5.5048 8.92954 11.0908L1.41504 34.2328C-0.397089 39.8188 1.58129 45.9534 6.33604 49.3948L26.02 63.6923C30.7748 67.1503 37.2087 67.1503 41.9634 63.6923L61.6474 49.3948C66.4188 45.9368 68.3972 39.8188 66.585 34.2328Z" fill="#4F6DE7"/>
<path d="M62.9275 33.1854L56.8095 14.3493C54.9974 8.76328 49.7771 4.97278 43.9085 4.97278H24.0915C18.2062 4.97278 13.0026 8.76328 11.1905 14.3493L5.0725 33.1854C3.26037 38.7714 5.23875 44.906 10.0101 48.364L26.0366 60.0015C30.7914 63.4595 37.2253 63.4595 41.98 60.0015L58.0065 48.364C62.7612 44.8894 64.7396 38.7714 62.9275 33.1854ZM7.267 39.8853C7.25037 39.8853 7.23375 39.8853 7.23375 39.8853C7.15062 39.8853 7.08412 39.8354 7.0675 39.7523C6.88462 38.921 6.78487 38.0565 6.76825 37.2087C6.76825 37.1089 6.83475 37.0424 6.9345 37.0424C7.03425 37.0424 7.10075 37.1255 7.10075 37.2087C7.11737 38.0399 7.2005 38.8712 7.38337 39.6858C7.41662 39.7855 7.35012 39.8687 7.267 39.8853ZM7.3335 34.7149C7.31687 34.798 7.25037 34.8479 7.16725 34.8479C7.15062 34.8479 7.15062 34.8479 7.134 34.8479C7.05087 34.8313 6.98437 34.7482 7.001 34.6484C7.10075 34.1497 7.23375 33.6509 7.38337 33.1688L7.69925 32.1879C7.7325 32.1048 7.83225 32.0549 7.91537 32.0715C7.9985 32.1048 8.04837 32.2045 8.03175 32.2877L7.71587 33.2685C7.54962 33.7507 7.43325 34.2328 7.3335 34.7149ZM9.37838 44.4571C9.34512 44.4738 9.31187 44.4904 9.27862 44.4904C9.22875 44.4904 9.17887 44.4738 9.14562 44.4239C8.64687 43.7257 8.21462 42.9775 7.8655 42.1962C7.83225 42.113 7.8655 42.0133 7.94862 41.98C8.03175 41.9468 8.1315 41.98 8.16475 42.0632C8.49725 42.8279 8.9295 43.5594 9.41162 44.2244C9.47812 44.2909 9.44487 44.4073 9.37838 44.4571ZM9.5945 27.483L8.81312 29.8937C8.7965 29.9602 8.73 30.01 8.64687 30.01C8.63025 30.01 8.61362 30.01 8.597 30.01C8.51387 29.9768 8.464 29.877 8.48062 29.7939L9.262 27.3833C9.29525 27.3002 9.395 27.2503 9.47812 27.2669C9.57787 27.3002 9.62775 27.3999 9.5945 27.483ZM11.6228 20.1514L12.4041 17.7408C12.4374 17.6577 12.5371 17.6078 12.6203 17.6244C12.7034 17.6577 12.7533 17.7574 12.72 17.8405L11.9386 20.2512C11.922 20.3177 11.8555 20.3675 11.7724 20.3675C11.7558 20.3675 11.7391 20.3675 11.7225 20.3675C11.6394 20.3343 11.5895 20.2345 11.6228 20.1514ZM10.2096 25.1888C10.193 25.1888 10.1764 25.1888 10.1597 25.1888C10.0766 25.1555 10.0268 25.0558 10.0434 24.9727L10.8247 22.562C10.858 22.4789 10.9578 22.429 11.0409 22.4457C11.124 22.4789 11.1739 22.5787 11.1572 22.6618L10.3759 25.0724C10.3593 25.1555 10.2928 25.1888 10.2096 25.1888ZM13.1024 47.8653C13.0691 47.9151 13.0192 47.9318 12.9694 47.9318C12.9361 47.9318 12.9029 47.9152 12.8696 47.8985L11.9553 47.2335C11.5729 46.9509 11.1905 46.6517 10.8414 46.3192C10.7749 46.2527 10.7749 46.1529 10.8247 46.0864C10.8912 46.0199 10.991 46.0199 11.0575 46.0698C11.39 46.3857 11.7558 46.6849 12.1381 46.9509L13.0525 47.6159C13.1356 47.6824 13.1523 47.7822 13.1024 47.8653ZM14.6485 13.2188C14.1996 13.917 13.8173 14.6652 13.518 15.4465C13.4848 15.513 13.4349 15.5629 13.3518 15.5629C13.3351 15.5629 13.3019 15.5629 13.2853 15.5463C13.2021 15.513 13.1523 15.4133 13.1855 15.3302C13.4848 14.5322 13.8838 13.7674 14.3493 13.0359C14.3991 12.9528 14.4989 12.9362 14.582 12.986C14.6817 13.0359 14.6984 13.1523 14.6485 13.2188ZM17.2087 50.8411C17.1755 50.891 17.1256 50.9077 17.0757 50.9077C17.0425 50.9077 17.0092 50.891 16.976 50.8744L14.9311 49.3782C14.848 49.3283 14.848 49.2119 14.8979 49.1454C14.9478 49.0623 15.0641 49.0623 15.1306 49.1122L17.1755 50.6084C17.242 50.6583 17.2586 50.7747 17.2087 50.8411ZM18.1231 9.67765C17.4249 10.1432 16.7765 10.6752 16.1946 11.2737C16.1614 11.3069 16.1115 11.3235 16.0782 11.3235C16.045 11.3235 15.9951 11.3069 15.9619 11.2737C15.8954 11.2072 15.8954 11.1074 15.9619 11.0409C16.5604 10.4258 17.2254 9.87715 17.9403 9.41165C18.0234 9.36178 18.1231 9.3784 18.173 9.46153C18.2229 9.52803 18.2063 9.62778 18.1231 9.67765ZM21.2985 53.817C21.2652 53.8669 21.2154 53.8835 21.1655 53.8835C21.1323 53.8835 21.099 53.8669 21.0658 53.8503L19.0209 52.354C18.9378 52.3041 18.9377 52.1878 18.9876 52.1213C19.0375 52.0382 19.1539 52.0382 19.2204 52.088L21.2653 53.5843C21.3318 53.6341 21.365 53.7505 21.2985 53.817ZM22.7283 7.81565C21.9136 7.96528 21.099 8.19803 20.3343 8.5139C20.3176 8.5139 20.2844 8.53053 20.2678 8.53053C20.2013 8.53053 20.1348 8.49728 20.1181 8.43078C20.0849 8.34765 20.1181 8.2479 20.2179 8.21465C21.0159 7.89878 21.8305 7.6494 22.6784 7.49978C22.7781 7.48315 22.8613 7.54965 22.8779 7.63278C22.8945 7.7159 22.828 7.79903 22.7283 7.81565ZM25.4049 56.7929C25.3716 56.8428 25.3218 56.8594 25.2719 56.8594C25.2386 56.8594 25.2054 56.8428 25.1721 56.8261L23.1273 55.3299C23.0608 55.28 23.0441 55.1637 23.094 55.0971C23.1439 55.014 23.2603 55.014 23.3268 55.0639L25.3716 56.5602C25.4381 56.6267 25.4548 56.7264 25.4049 56.7929ZM25.222 7.59953C25.1222 7.59953 25.0557 7.5164 25.0557 7.43328C25.0557 7.35015 25.1389 7.26703 25.222 7.26703H27.7656C27.8654 7.26703 27.9319 7.35015 27.9319 7.43328C27.9319 7.5164 27.8487 7.59953 27.7656 7.59953H25.222ZM29.744 59.3698C29.7274 59.4363 29.6609 59.4861 29.5944 59.4861C29.5777 59.4861 29.5611 59.4862 29.5279 59.4695C28.7299 59.1703 27.9651 58.7713 27.2336 58.3224C27.1505 58.2725 27.1339 58.1728 27.1838 58.0896C27.2336 58.0065 27.3334 57.9899 27.4165 58.0398C28.1147 58.4887 28.8629 58.871 29.6442 59.1536C29.744 59.1869 29.7772 59.2867 29.744 59.3698ZM30.1098 7.43328C30.1098 7.33353 30.1929 7.26703 30.276 7.26703H32.8196C32.9194 7.26703 32.9859 7.35015 32.9859 7.43328C32.9859 7.5164 32.9027 7.59953 32.8196 7.59953H30.276C30.1929 7.59953 30.1098 7.53303 30.1098 7.43328ZM34.5652 60.2842C34.3824 60.2842 34.1829 60.3008 34 60.3008C33.335 60.3008 32.67 60.2509 32.005 60.1345C31.9219 60.1179 31.8554 60.0348 31.872 59.935C31.8886 59.8519 31.9717 59.7854 32.0715 59.802C32.8861 59.935 33.734 59.9849 34.5652 59.935C34.6484 59.935 34.7315 60.0015 34.7481 60.1013C34.7315 60.201 34.665 60.2675 34.5652 60.2842ZM35.1804 7.43328C35.1804 7.33353 35.2635 7.26703 35.3466 7.26703H37.8902C37.99 7.26703 38.0565 7.35015 38.0565 7.43328C38.0565 7.5164 37.9734 7.59953 37.8902 7.59953H35.3466C35.2635 7.59953 35.1804 7.53303 35.1804 7.43328ZM39.5195 59.0207C38.7547 59.403 37.9401 59.6856 37.1089 59.9018C37.0923 59.9018 37.0756 59.9018 37.059 59.9018C36.9925 59.9018 36.9094 59.8519 36.8927 59.7688C36.8761 59.6856 36.926 59.5859 37.0091 59.5693C37.8237 59.3698 38.6051 59.0705 39.3532 58.7048C39.4364 58.6549 39.5361 58.7048 39.586 58.7879C39.6359 58.871 39.6026 58.9708 39.5195 59.0207ZM40.251 7.43328C40.251 7.33353 40.3341 7.26703 40.4173 7.26703H42.9609C43.0606 7.26703 43.1271 7.35015 43.1271 7.43328C43.1271 7.5164 43.044 7.59953 42.9609 7.59953H40.4173C40.3341 7.59953 40.251 7.53303 40.251 7.43328ZM43.7423 56.1778L41.6974 57.674C41.6641 57.6907 41.6309 57.7073 41.5976 57.7073C41.5477 57.7073 41.4979 57.674 41.4646 57.6408C41.4147 57.5577 41.4314 57.4579 41.4979 57.408L43.5427 55.9118C43.6259 55.8619 43.7256 55.8785 43.7755 55.945C43.8254 56.0282 43.8088 56.1279 43.7423 56.1778ZM58.5717 27.4498C58.6549 27.4165 58.7546 27.4664 58.7879 27.5495L59.5692 29.9602C59.6025 30.0433 59.5526 30.143 59.4529 30.1763C59.4363 30.1763 59.4196 30.1763 59.403 30.1763C59.3365 30.1763 59.27 30.1264 59.2367 30.0599L58.4554 27.6493C58.4388 27.5662 58.4886 27.4664 58.5717 27.4498ZM55.4296 17.8073C55.5127 17.774 55.6125 17.8239 55.6458 17.9237L56.4271 20.3343C56.4604 20.4174 56.4105 20.5172 56.3274 20.5504C56.3107 20.5504 56.2941 20.5504 56.2775 20.5504C56.211 20.5504 56.1445 20.5005 56.1113 20.434L55.3299 18.0234C55.2966 17.9237 55.3465 17.8239 55.4296 17.8073ZM47.8486 53.2019L45.8037 54.6982C45.7705 54.7148 45.7372 54.7314 45.704 54.7314C45.6541 54.7314 45.6043 54.7148 45.571 54.6649C45.5211 54.5818 45.5377 54.482 45.6042 54.4322L47.6491 52.9359C47.7323 52.886 47.832 52.9027 47.8819 52.9692C47.9318 53.0357 47.9151 53.152 47.8486 53.2019ZM48.0481 8.48065C48.0149 8.54715 47.965 8.5804 47.8985 8.5804C47.8819 8.5804 47.8486 8.5804 47.832 8.56378C47.0673 8.23128 46.2692 7.99853 45.4546 7.83228C45.3715 7.81565 45.305 7.73253 45.3216 7.63278C45.3382 7.54965 45.4214 7.48315 45.5211 7.49978C46.3524 7.66603 47.1836 7.9154 47.965 8.2479C48.0481 8.29778 48.0814 8.39753 48.0481 8.48065ZM51.9384 50.226L49.8935 51.7223C49.8603 51.7389 49.827 51.7555 49.7938 51.7555C49.7439 51.7555 49.694 51.7389 49.6608 51.689C49.6109 51.6059 49.6275 51.5062 49.694 51.4563L51.7389 49.96C51.822 49.9102 51.9218 49.9268 51.9716 49.9933C52.0381 50.0598 52.0215 50.1762 51.9384 50.226ZM52.1545 11.4067C52.1213 11.4399 52.0714 11.4565 52.0381 11.4565C51.9883 11.4565 51.955 11.4399 51.9217 11.4067C51.3399 10.8082 50.7081 10.2595 50.0265 9.7774C49.9434 9.72753 49.9268 9.61115 49.9766 9.54465C50.0265 9.46153 50.1429 9.4449 50.2094 9.49478C50.9076 9.9769 51.5726 10.5422 52.1545 11.1573C52.221 11.2404 52.221 11.3402 52.1545 11.4067ZM53.5011 13.1357C53.5842 13.0858 53.684 13.1024 53.7339 13.1855C54.1828 13.917 54.5651 14.6818 54.8644 15.4964C54.8976 15.5795 54.8477 15.6793 54.7646 15.7125C54.748 15.7125 54.7147 15.7292 54.6981 15.7292C54.6316 15.7292 54.5651 15.6793 54.5319 15.6128C54.2492 14.8314 53.8669 14.0833 53.4346 13.3684C53.4014 13.2853 53.418 13.1855 53.5011 13.1357ZM57.0256 46.4522C56.7098 46.7348 56.3939 47.0008 56.0448 47.2335L53.9999 48.7298C53.9666 48.7464 53.9334 48.763 53.9001 48.763C53.8503 48.763 53.8004 48.7298 53.7671 48.6965C53.7173 48.6134 53.7339 48.5137 53.8004 48.4638L55.8452 46.9675C56.1777 46.7348 56.4936 46.4688 56.7929 46.2028C56.8594 46.1363 56.9757 46.1529 57.0256 46.2194C57.0921 46.2859 57.0921 46.3857 57.0256 46.4522ZM57.8901 25.355C57.8735 25.355 57.8569 25.355 57.8402 25.355C57.7738 25.355 57.7072 25.3052 57.674 25.2387L56.8926 22.828C56.8594 22.7449 56.9092 22.6452 57.009 22.6119C57.0921 22.5787 57.1919 22.6285 57.2251 22.7117L58.0065 25.1223C58.0231 25.2387 57.9733 25.3218 57.8901 25.355ZM60.068 42.3624C59.7022 43.1438 59.27 43.8753 58.7546 44.5735C58.7214 44.6234 58.6715 44.64 58.6216 44.64C58.5884 44.64 58.5551 44.6234 58.5219 44.6068C58.4388 44.5569 58.4387 44.4405 58.4886 44.374C58.9874 43.709 59.4196 42.9775 59.7687 42.2294C59.802 42.1463 59.9017 42.113 59.9849 42.1463C60.068 42.1795 60.1012 42.2793 60.068 42.3624ZM60.0348 32.4705C60.0015 32.3874 60.0514 32.2877 60.1511 32.2544C60.2342 32.2212 60.334 32.271 60.3673 32.3542L60.6333 33.1688C60.8161 33.7174 60.9491 34.266 61.0489 34.8147C61.0655 34.9144 60.999 34.9975 60.9159 35.0142C60.8993 35.0142 60.8993 35.0142 60.8826 35.0142C60.7995 35.0142 60.733 34.9643 60.7164 34.8812C60.6166 34.3325 60.4836 33.8005 60.3174 33.2685L60.0348 32.4705ZM60.8993 39.9352C60.8826 40.0183 60.8161 40.0682 60.733 40.0682C60.7164 40.0682 60.6998 40.0682 60.6998 40.0682C60.6166 40.0515 60.5501 39.9518 60.5667 39.8687C60.7496 39.054 60.866 38.2228 60.8826 37.3915C60.8826 37.2918 60.9658 37.2253 61.0489 37.2253C61.1486 37.2253 61.2151 37.3084 61.2151 37.3915C61.1985 38.2394 61.0987 39.1039 60.8993 39.9352Z" fill="#E5E9F1"/>
<g filter="url(#filter0_i_1159_216)">
<path d="M27.0407 39.5751H24.8514V33.239H22.3031V31.2582H29.589V33.239H27.0407V39.5751ZM33.9112 39.7488C31.5135 39.7488 29.6254 37.9302 29.6254 35.4051C29.6254 32.8799 31.5135 31.0845 33.9112 31.0845C36.3206 31.0845 38.2086 32.8799 38.2086 35.4051C38.2086 37.9302 36.3206 39.7488 33.9112 39.7488ZM33.9112 37.7912C35.2201 37.7912 35.9499 36.714 35.9499 35.4051C35.9499 34.0962 35.2201 33.0421 33.9112 33.0421C32.6023 33.0421 31.8726 34.0962 31.8726 35.4051C31.8726 36.714 32.6023 37.7912 33.9112 37.7912ZM42.5857 37.0383H41.5316V39.5751H39.3424V31.2582H42.5857C44.7634 31.2582 46.0723 32.2312 46.0723 34.0962C46.0723 35.9727 44.7634 37.0383 42.5857 37.0383ZM42.5741 33.1H41.5316V35.1966H42.5741C43.4429 35.1966 43.8946 34.7564 43.8946 34.1193C43.8946 33.4707 43.4429 33.1 42.5741 33.1ZM34.1685 53.6793C32.4078 53.6793 31.1452 52.6484 31.1452 51.2005H33.0912C33.1375 51.7797 33.543 52.1156 34.1916 52.1156C34.8866 52.1156 35.2805 51.7912 35.2805 51.2237C35.2805 50.6677 34.8055 50.3549 33.96 50.3549H33.0796V48.7912H33.8441C34.5507 48.7912 34.933 48.5132 34.933 47.9919C34.933 47.4822 34.6202 47.1927 34.0642 47.1927C33.5314 47.1927 33.207 47.5402 33.207 48.1077H31.2726C31.2726 46.6946 32.5352 45.6289 34.1685 45.6289C35.9291 45.6289 36.9832 46.544 36.9832 47.8297C36.9832 48.5016 36.601 49.0344 35.8944 49.4514C36.821 49.7757 37.3307 50.3665 37.3307 51.1773C37.3307 52.6716 36.0565 53.6793 34.1685 53.6793Z" fill="#009260"/>
</g>
<g filter="url(#filter1_i_1159_216)">
<path d="M38.5427 19.1276C38.5011 19.0056 38.3971 18.9243 38.2724 18.904L35.4658 18.4976L34.3015 16.2214L36.5261 14.0468C36.5884 13.9858 36.63 13.9045 36.63 13.8232V8.60019C36.63 8.41729 36.4845 8.27502 36.2974 8.27502H31.5157C31.3286 8.27502 31.1831 8.41729 31.1831 8.60019V13.8232C31.1831 13.9045 31.2247 13.9858 31.287 14.0468L32.3057 15.0426L33.5115 16.2214L32.3681 18.4976L29.5615 18.904C29.4367 18.9243 29.3328 19.0056 29.2912 19.1276C29.2496 19.2495 29.2912 19.3715 29.3744 19.4731L31.4118 21.4038L30.9336 24.1474C30.9128 24.2693 30.9544 24.3913 31.0583 24.4726C31.1207 24.5132 31.1831 24.5335 31.2662 24.5335C31.3286 24.5335 31.3702 24.5132 31.4326 24.4929L33.8858 23.2125L36.4013 24.5132C36.5053 24.5742 36.6508 24.5539 36.7547 24.4929C36.8587 24.4116 36.9003 24.2897 36.8795 24.1677L36.4013 21.4241L38.4387 19.4934C38.5427 19.3918 38.5634 19.2495 38.5427 19.1276ZM36.9834 19.3918L35.4034 19.8795C35.3202 19.6966 35.1955 19.534 35.05 19.3918L35.2371 19.1276L36.9834 19.3918ZM32.0355 21.4241L32.3681 21.3225C32.4513 21.5054 32.576 21.668 32.7215 21.7899L31.7444 23.1109L32.0355 21.4241ZM32.5344 19.1479L32.7215 19.4121C32.576 19.5544 32.4513 19.717 32.3681 19.8999L30.8089 19.4121L32.5344 19.1479ZM32.9294 20.8957C32.8878 20.7941 32.8671 20.6925 32.8671 20.5908C32.8671 20.4892 32.8878 20.3876 32.9086 20.286C32.971 20.0828 33.0957 19.9202 33.2828 19.7982C33.4492 19.6763 33.6571 19.595 33.8858 19.595C34.1144 19.595 34.3015 19.656 34.4887 19.7982C34.655 19.9202 34.8005 20.1031 34.8629 20.3063C34.9044 20.4079 34.9044 20.5096 34.9044 20.6112C34.9044 20.7128 34.8837 20.8347 34.8421 20.916C34.7797 21.1192 34.6342 21.2818 34.4679 21.4038C34.3015 21.5257 34.0936 21.5867 33.8858 21.5867C33.6779 21.5867 33.47 21.5257 33.2828 21.4038C33.1165 21.2818 32.9918 21.0989 32.9294 20.8957ZM34.6966 19.1479C34.5094 19.0463 34.3223 18.9853 34.1144 18.965V17.3595L34.8837 18.904L34.6966 19.1479ZM32.8463 14.6768V8.92536H34.946V14.6565L33.8858 15.693L32.8463 14.6768ZM33.6571 18.965C33.4492 18.9853 33.2621 19.0463 33.075 19.1479L32.8878 18.8837L33.6571 17.3391V18.965ZM33.0957 22.0541C33.2828 22.1557 33.47 22.2167 33.6779 22.237V22.5825L32.1186 23.3751L33.0957 22.0541ZM34.1144 22.2167C34.3223 22.1964 34.5094 22.1354 34.6966 22.0338L35.6737 23.3548L34.1144 22.5622V22.2167ZM35.736 21.4241L36.0271 23.1109L35.05 21.7899C35.1955 21.6476 35.3202 21.4851 35.4034 21.3225L35.736 21.4241ZM35.9439 13.681L35.6321 13.9858V8.92536H35.9439V13.681ZM31.8276 8.92536H32.181V14.0061L31.8276 13.6607V8.92536ZM30.6425 19.7982L32.2226 20.286C32.2018 20.3876 32.2018 20.4689 32.2018 20.5705C32.2018 20.6721 32.2226 20.7738 32.2434 20.8754L31.9107 20.977L30.6425 19.7982ZM35.8608 20.9973L35.5489 20.8957C35.5697 20.7941 35.5905 20.6925 35.5905 20.5908C35.5905 20.4892 35.5697 20.3876 35.5697 20.3063L37.1497 19.8186L35.8608 20.9973Z" fill="#008F5E"/>
</g>
</g>
<defs>
<filter id="filter0_i_1159_216" x="22.3032" y="31.0845" width="23.769" height="23.5678" filterUnits="userSpaceOnUse" color-interpolation-filters="sRGB">
<feFlood flood-opacity="0" result="BackgroundImageFix"/>
<feBlend mode="normal" in="SourceGraphic" in2="BackgroundImageFix" result="shape"/>
<feColorMatrix in="SourceAlpha" type="matrix" values="0 0 0 0 0 0 0 0 0 0 0 0 0 0 0 0 0 0 127 0" result="hardAlpha"/>
<feOffset dy="0.973"/>
<feGaussianBlur stdDeviation="0.4865"/>
<feComposite in2="hardAlpha" operator="arithmetic" k2="-1" k3="1"/>
<feColorMatrix type="matrix" values="0 0 0 0 0 0 0 0 0 0 0 0 0 0 0 0 0 0 0.25 0"/>
<feBlend mode="normal" in2="shape" result="effect1_innerShadow_1159_216"/>
</filter>
<filter id="filter1_i_1159_216" x="29.2749" y="8.27502" width="9.2749" height="16.975" filterUnits="userSpaceOnUse" color-interpolation-filters="sRGB">
<feFlood flood-opacity="0" result="BackgroundImageFix"/>
<feBlend mode="normal" in="SourceGraphic" in2="BackgroundImageFix" result="shape"/>
<feColorMatrix in="SourceAlpha" type="matrix" values="0 0 0 0 0 0 0 0 0 0 0 0 0 0 0 0 0 0 127 0" result="hardAlpha"/>
<feOffset dy="0.7"/>
<feGaussianBlur stdDeviation="0.35"/>
<feComposite in2="hardAlpha" operator="arithmetic" k2="-1" k3="1"/>
<feColorMatrix type="matrix" values="0 0 0 0 0 0 0 0 0 0 0 0 0 0 0 0 0 0 0.25 0"/>
<feBlend mode="normal" in2="shape" result="effect1_innerShadow_1159_216"/>
</filter>
<clipPath id="clip0_1159_216">
<rect width="66.5" height="66.5" fill="white" transform="translate(0.75 0.750061)"/>
</clipPath>
</defs>
</svg>
