<svg width="104" height="104" viewBox="0 0 104 104" fill="none" xmlns="http://www.w3.org/2000/svg">
<g clip-path="url(#clip0_3251_45740)">
<path d="M36.9685 104.812C46.6373 104.812 54.4373 97.0125 54.4373 87.3438V69.875H36.9685C27.2998 69.875 19.4998 77.675 19.4998 87.3438C19.4998 97.0125 27.2998 104.812 36.9685 104.812Z" fill="#0ACF83"/>
<path d="M19.4998 52.4062C19.4998 42.7375 27.2998 34.9375 36.9685 34.9375H54.4373V69.875H36.9685C27.2998 69.875 19.4998 62.075 19.4998 52.4062Z" fill="#A259FF"/>
<path d="M19.4998 17.4688C19.4998 7.8 27.2998 0 36.9685 0H54.4373V34.9375H36.9685C27.2998 34.9375 19.4998 27.1375 19.4998 17.4688Z" fill="#F24E1E"/>
<path d="M54.4373 0H71.906C81.5748 0 89.3748 7.8 89.3748 17.4688C89.3748 27.1375 81.5748 34.9375 71.906 34.9375H54.4373V0Z" fill="#FF7262"/>
<path d="M89.3748 52.4062C89.3748 62.075 81.5748 69.875 71.906 69.875C62.2373 69.875 54.4373 62.075 54.4373 52.4062C54.4373 42.7375 62.2373 34.9375 71.906 34.9375C81.5748 34.9375 89.3748 42.7375 89.3748 52.4062Z" fill="#1ABCFE"/>
</g>
<defs>
<clipPath id="clip0_3251_45740">
<rect width="104" height="104" fill="white"/>
</clipPath>
</defs>
</svg>
